<?xml version="1.0" encoding="UTF-8" standalone="no"?>
<!-- Created with Inkscape (http://www.inkscape.org/) by Marsupilami -->
<svg
   xmlns:svg="http://www.w3.org/2000/svg"
   xmlns="http://www.w3.org/2000/svg"
   version="1.0"
   width="1024"
   height="236"
   viewBox="0 0 110.48 25.483749"
   id="svg2336">
  <defs
     id="defs2338" />
  <g
     transform="translate(-603.35625,-975.965)"
     id="layer1">
    <path
       d="M 1.46875,0 C 0.66125002,0 0,0.66125 0,1.46875 L 0,2 L 27.59375,2 L 27.59375,1.46875 C 27.593751,0.66125005 26.96375,0 26.15625,0 L 1.46875,0 z M 68.96875,2 C 67.86375,2 66.968748,2.89375 66.96875,4 C 66.96875,5.105 67.863747,6.0000002 68.96875,6 C 70.07375,6 70.968753,5.105 70.96875,4 C 70.96875,2.89375 70.073747,2 68.96875,2 z M 35.03125,2.3125 L 35.03125,13.09375 C 35.03125,13.63625 35.073748,14.42625 34.71875,14.875 C 34.3175,15.39375 33.646251,15.53125 33.03125,15.53125 C 32.4175,15.53125 30.704999,14.88 30,14.3125 L 30,17.75 C 30,17.75 30.96375,18.311251 31.53125,18.4375 C 32.37,18.62375 33.749998,18.750001 33.75,18.75 C 37.41375,18.75 38.812502,17.2 38.8125,13.5625 L 38.8125,2.3125 L 35.03125,2.3125 z M 108.3125,2.46875 C 107.1175,2.46875 106.09375,3.355 106.09375,4.59375 C 106.09375,5.84375 107.1175,6.78125 108.3125,6.78125 C 109.47875,6.78125 110.46875,5.84375 110.46875,4.59375 C 110.46875,3.355 109.47875,2.46875 108.3125,2.46875 z M 0,2.78125 L 0,5.46875 L 5.34375,5.46875 C 6.6737499,4.2512498 8.2875,3.32875 10.09375,2.78125 L 0,2.78125 z M 17.5625,2.78125 C 19.37,3.32875 20.9825,4.25125 22.3125,5.46875 L 27.59375,5.46875 L 27.59375,2.78125 L 17.5625,2.78125 z M 108.3125,2.8125 C 109.28,2.8125 110.03125,3.575 110.03125,4.59375 C 110.03125,5.6325 109.28,6.40625 108.3125,6.40625 C 107.3275,6.4062502 106.53125,5.6325 106.53125,4.59375 C 106.53125,3.575 107.3275,2.8125 108.3125,2.8125 z M 9.03125,3.34375 C 8.8625002,3.405 8.75625,3.5725 8.78125,3.75 L 9.0625,5.84375 L 8.96875,5.8125 C 8.8325002,5.7425002 8.67875,5.74375 8.5625,5.84375 C 8.44625,5.94375 8.38875,6.10375 8.4375,6.25 L 9.09375,8.25 L 8.4375,7.875 C 8.2837501,7.7974999 8.08375,7.84125 7.96875,7.96875 C 7.855,8.0974999 7.8425,8.29375 7.9375,8.4375 L 8.59375,9.40625 C 8.4787501,9.4 8.35875,9.4425 8.28125,9.53125 C 8.1762504,9.6537499 8.13875,9.83 8.21875,9.96875 L 8.90625,11.15625 L 8.46875,10.8125 C 8.3312503,10.705 8.13625,10.70375 8,10.8125 C 7.86375,10.92 7.83375,11.12375 7.90625,11.28125 L 9.15625,14 L 8.84375,13.8125 C 8.7062496,13.7275 8.53125,13.74 8.40625,13.84375 C 8.2812498,13.94625 8.22375,14.13 8.28125,14.28125 L 8.6875,15.375 L 7.5625,14.625 C 7.4425001,14.54875 7.27875,14.55375 7.15625,14.625 C 7.03375,14.6975 6.96,14.82625 6.96875,14.96875 L 7,15.15625 L 6.78125,15 L 5.65625,13.59375 C 5.5487498,13.45875 5.34625,13.3975 5.1875,13.46875 C 5.0587501,13.5275 5.00875,13.675 5,13.8125 L 4.09375,12.96875 C 3.9662498,12.85125 3.77,12.8425 3.625,12.9375 C 3.4787499,13.03375 3.41,13.21 3.46875,13.375 L 3.84375,14.4375 C 3.8,14.4575 3.78375,14.46375 3.75,14.5 C 3.6400001,14.61875 3.6125,14.795 3.6875,14.9375 L 4.40625,16.34375 C 4.4125001,16.352499 4.54625,16.55 4.6875,16.78125 L 4.21875,16.78125 C 4.0737499,16.78125 3.96875,16.87 3.90625,17 C 3.8425001,17.131251 3.8475,17.2925 3.9375,17.40625 L 4.9375,18.6875 C 4.8024999,18.702499 4.71,18.77875 4.65625,18.90625 C 4.5974998,19.046249 4.6125,19.20375 4.71875,19.3125 L 6.4375,21.09375 L 6.3125,21.09375 C 6.1575001,21.07375 6.0125,21.14375 5.9375,21.28125 C 5.86375,21.418751 5.89875,21.6 6,21.71875 L 6.4375,22.21875 C 6.4049999,22.255 6.36125,22.29625 6.34375,22.34375 C 6.29125,22.49375 6.3475,22.64875 6.46875,22.75 L 7.34375,23.5 L 0,23.5 L 0,24.03125 C 0,24.83875 0.66125,25.46875 1.46875,25.46875 L 26.15625,25.46875 C 26.96375,25.468751 27.59375,24.83875 27.59375,24.03125 L 27.59375,23.5 L 20.875,23.5 L 20.875,23.46875 L 19.9375,23.46875 C 19.91125,23.446249 19.88375,23.41375 19.875,23.40625 L 21.625,21.71875 C 21.742499,21.60375 21.76125,21.42875 21.6875,21.28125 C 21.67875,21.262499 21.6675,21.26625 21.65625,21.25 L 22.40625,20.6875 C 22.52875,20.597501 22.56625,20.46 22.53125,20.3125 C 22.496251,20.164999 22.4,20.025 22.25,20 L 21.90625,19.96875 C 21.906249,19.968749 21.75625,19.92375 21.65625,19.90625 L 22.25,19.34375 L 22.84375,18.8125 L 23.46875,18.28125 C 23.591249,18.170001 23.60125,17.99375 23.53125,17.84375 C 23.46125,17.693749 23.32,17.6025 23.15625,17.625 L 23.03125,17.625 L 23.0625,17.53125 L 24,16.46875 C 24.108751,16.34125 24.1225,16.17125 24.03125,16.03125 C 23.992499,15.9725 23.93625,15.90375 23.875,15.875 L 24.3125,15.21875 C 24.410001,15.0725 24.40125,14.8775 24.28125,14.75 C 24.16125,14.62125 23.965,14.60125 23.8125,14.6875 L 23.15625,15.03125 C 23.154999,15.03125 22.53125,15.40625 22.53125,15.40625 L 21.875,15.78125 C 21.88125,15.675 21.875,15.59375 21.875,15.59375 L 21.90625,15.125 L 21.9375,14.6875 C 21.94875,14.52375 21.84125,14.3725 21.6875,14.3125 C 21.532499,14.25375 21.3525,14.2775 21.25,14.40625 L 21.03125,14.71875 C 20.9875,14.66875 20.91,14.615 20.84375,14.59375 C 20.773749,14.57125 20.725,14.575 20.65625,14.59375 L 21.3125,13.59375 C 21.401251,13.45875 21.38125,13.28375 21.28125,13.15625 C 21.212501,13.06625 21.10875,13.005 21,13 L 21.59375,11.84375 C 21.6675,11.70125 21.6425,11.52375 21.53125,11.40625 C 21.421249,11.29 21.2725,11.27875 21.125,11.34375 L 20.59375,11.5625 L 20.0625,11.8125 L 19.59375,12 L 19.625,11.53125 L 19.875,10.71875 C 19.924999,10.56125 19.885,10.4075 19.75,10.3125 C 19.684999,10.26625 19.60625,10.21875 19.53125,10.21875 L 19.8125,8.09375 C 19.83875,7.9175002 19.7625,7.74875 19.59375,7.6875 C 19.425001,7.6249998 19.21875,7.69125 19.125,7.84375 L 18.6875,8.5625 C 18.626251,8.4574998 18.53125,8.385 18.40625,8.375 C 18.242501,8.3612496 18.09375,8.4425 18.03125,8.59375 L 17.34375,10.1875 C 17.3175,10.18 17.30875,10.18875 17.28125,10.1875 C 17.127501,10.1825 16.97,10.26625 16.90625,10.40625 L 16.65625,10.9375 C 16.54875,10.90875 16.43625,10.93625 16.34375,11 L 16.28125,11.03125 L 16.125,9.46875 C 16.111249,9.3300005 16.035,9.21 15.90625,9.15625 C 15.78,9.1037502 15.64,9.13625 15.53125,9.21875 L 14.5,7.3125 C 14.42625,7.1762498 14.28,7.10625 14.125,7.125 C 13.97125,7.1425002 13.82125,7.2575 13.78125,7.40625 L 13.6875,7.84375 C 13.6875,7.8437499 13.6275,8.025 13.59375,8.15625 C 13.5975,8.1649997 12.875,6.5 12.875,6.5 C 12.8125,6.3525 12.66,6.2725 12.5,6.28125 C 12.4375,6.28625 12.395,6.3125 12.34375,6.34375 L 11.90625,5.3125 C 11.84875,5.1699998 11.71625,5.06125 11.5625,5.0625 C 11.4075,5.06375 11.275,5.16875 11.21875,5.3125 L 11.09375,5.65625 L 10.875,5 C 10.8275,4.8475002 10.69125,4.75625 10.53125,4.75 C 10.42375,4.7450001 10.32375,4.77125 10.25,4.84375 L 9.96875,4.28125 C 9.9574998,4.2625001 9.46875,3.5 9.46875,3.5 C 9.3750002,3.3474999 9.2,3.28375 9.03125,3.34375 z M 107.46875,3.375 L 107.46875,5.84375 L 107.84375,5.84375 L 107.84375,4.78125 L 108.28125,4.78125 L 108.9375,5.84375 L 109.34375,5.84375 L 108.65625,4.75 C 109.0125,4.7099998 109.28125,4.50375 109.28125,4.0625 C 109.28125,3.5712501 108.99125,3.375 108.40625,3.375 L 107.46875,3.375 z M 107.84375,3.6875 L 108.34375,3.6875 C 108.60125,3.6874999 108.90625,3.755 108.90625,4.0625 C 108.90625,4.4475002 108.6025,4.46875 108.28125,4.46875 L 107.84375,4.46875 L 107.84375,3.6875 z M 0,6.25 L 0,8.90625 L 2.78125,8.90625 C 3.255,7.9387496 3.8675,7.05125 4.59375,6.25 L 0,6.25 z M 23.09375,6.25 C 23.819999,7.0512498 24.40125,7.93875 24.875,8.90625 L 27.59375,8.90625 L 27.59375,6.25 L 23.09375,6.25 z M 61.03125,6.28125 C 59.27875,6.28125 58.272502,7.0250001 57.5625,8.5625 L 57.53125,8.5625 L 57.53125,6.53125 L 54.25,6.53125 L 54.25,18.53125 L 57.71875,18.53125 L 57.71875,12.09375 C 57.71875,11.3375 57.77,10.62375 58.125,9.9375 C 58.40875,9.39375 58.978748,9.0625 59.59375,9.0625 C 61.34625,9.0625 61.156252,10.86375 61.15625,12.09375 L 61.15625,18.53125 L 64.65625,18.53125 L 64.65625,11.125 C 64.65625,10.03625 64.63,8.5237501 63.96875,7.625 C 63.25875,6.655 62.166248,6.2812499 61.03125,6.28125 z M 79.78125,6.28125 C 78.243747,6.2812499 77.29625,6.96 76.65625,8.28125 L 76.59375,8.28125 L 76.59375,6.53125 L 73.34375,6.53125 L 73.34375,24.84375 L 76.8125,24.84375 L 76.8125,17.1875 L 76.84375,17.1875 C 77.341251,18.251249 78.44125,18.75 79.625,18.75 C 83.124998,18.750001 84.21875,15.48 84.21875,12.53125 C 84.218754,11.0675 84.06875,9.64875 83.3125,8.375 C 82.508746,7.0062502 81.39,6.28125 79.78125,6.28125 z M 104.75,6.28125 C 103.2375,6.16375 102.5425,7.5037495 102.1875,8.78125 L 102.125,8.78125 L 102.125,6.53125 L 98.875,6.53125 L 98.875,18.53125 L 102.375,18.53125 L 102.375,13.9375 C 102.375,11.80875 102.69625,9.6700003 105.34375,9.8125 L 105.34375,6.34375 L 104.75,6.28125 z M 91.15625,6.3125 C 87.421248,6.3124998 85.3125,9.1575 85.3125,12.6875 C 85.3125,16.23625 87.6575,18.75 91.25,18.75 C 95.316246,18.750001 96.71875,15.2125 96.71875,14.625 L 93.5,14.375 C 93.5,15.47875 92.43875,16.28125 91.375,16.28125 C 89.862502,16.281251 89.01625,15.1275 89.0625,13.71875 L 89.09375,13.125 L 96.78125,13.125 C 96.804996,11.49375 96.555,9.7975 95.5625,8.4375 C 94.569998,7.0662497 92.835,6.3125 91.15625,6.3125 z M 41.5625,6.53125 L 41.5625,14.09375 C 41.5625,15.2525 41.493749,16.39625 42.15625,17.4375 C 42.84125,18.525 43.887501,18.78125 45.09375,18.78125 C 46.72625,18.78125 47.96375,17.982499 48.53125,16.46875 L 48.5625,16.46875 L 48.5625,18.53125 L 51.78125,18.53125 L 51.78125,6.53125 L 48.3125,6.53125 L 48.3125,12.96875 C 48.3125,13.58375 48.3625,14.26875 48.125,14.8125 C 47.8175,15.5225 47.156251,16 46.375,16 C 45.14375,16 45.031252,15.06375 45.03125,14.09375 L 45.03125,6.53125 L 41.5625,6.53125 z M 67.125,6.53125 L 67.125,18.53125 L 70.59375,18.53125 L 70.59375,6.53125 L 67.125,6.53125 z M 91.3125,8.59375 C 92.825003,8.5937501 93.2425,9.77375 93.3125,11.0625 L 89.0625,11.0625 C 89.18125,9.7025004 89.77625,8.59375 91.3125,8.59375 z M 78.71875,8.75 C 80.469999,8.7499997 80.5625,11.21 80.5625,12.4375 C 80.562497,13.665 80.5175,16.28125 78.71875,16.28125 C 78.103749,16.28125 77.4875,15.925 77.15625,15.40625 C 76.753748,14.745 76.8125,13.72375 76.8125,12.96875 L 76.8125,11.78125 C 76.812501,11.07375 76.80125,10.355 77.15625,9.71875 C 77.463748,9.12875 78.0325,8.75 78.71875,8.75 z M 0,9.6875 L 0,12.375 L 1.75,12.375 C 1.865,11.4375 2.0975,10.5425 2.4375,9.6875 L 0,9.6875 z M 25.21875,9.6875 C 25.55875,10.5425 25.7925,11.4375 25.90625,12.375 L 27.59375,12.375 L 27.59375,9.6875 L 25.21875,9.6875 z M 0,13.15625 L 0,15.8125 L 1.875,15.8125 C 1.7400001,15.12875 1.65625,14.43875 1.65625,13.71875 C 1.65625,13.53125 1.6475,13.34125 1.65625,13.15625 L 0,13.15625 z M 26,13.15625 C 26.00875,13.34125 26,13.53125 26,13.71875 C 26.000001,14.43875 25.91625,15.12875 25.78125,15.8125 L 27.59375,15.8125 L 27.59375,13.15625 L 26,13.15625 z M 0,16.59375 L 0,19.3125 L 3.21875,19.3125 C 2.7112501,18.4625 2.3275,17.56125 2.0625,16.59375 L 0,16.59375 z M 25.625,16.59375 C 25.36,17.56125 24.945,18.4625 24.4375,19.3125 L 27.59375,19.3125 L 27.59375,16.59375 L 25.625,16.59375 z M 0,20.09375 L 0,22.71875 L 6.28125,22.71875 C 5.2837501,21.97625 4.42875,21.0925 3.71875,20.09375 L 0,20.09375 z M 23.9375,20.09375 C 23.2275,21.0925 22.37375,21.97625 21.375,22.71875 L 27.59375,22.71875 L 27.59375,20.09375 L 23.9375,20.09375 z M 53.46875,20.125 C 52.082499,20.125 51.46875,21.3 51.46875,22.53125 C 51.468748,23.113749 51.5975,23.705 51.9375,24.1875 C 52.306249,24.705 52.83375,24.90625 53.46875,24.90625 C 54.106249,24.906249 54.67,24.65625 55.03125,24.125 C 55.331248,23.68375 55.46875,23.06 55.46875,22.53125 C 55.46875,21.969999 55.30375,21.2975 54.96875,20.84375 C 54.593751,20.3325 54.0925,20.125 53.46875,20.125 z M 68.96875,20.125 C 68.53625,20.125 68.153754,20.213749 67.8125,20.5 C 67.48,20.77875 67.312498,21.16125 67.3125,21.59375 C 67.3125,22.61125 68.134997,22.862499 68.96875,23.03125 C 69.25625,23.0925 69.781254,23.17625 69.78125,23.5625 C 69.78125,23.94875 69.345002,24.0625 69.03125,24.0625 C 68.54625,24.0625 68.198752,23.89375 68.0625,23.40625 L 67.0625,23.625 C 67.2725,24.53625 68.057497,24.906249 68.9375,24.90625 C 69.41,24.90625 69.938754,24.82375 70.3125,24.53125 C 70.67375,24.25125 70.875003,23.82875 70.875,23.375 C 70.875,22.91375 70.662498,22.5325 70.28125,22.28125 C 69.95375,22.065 69.446253,21.94875 69.0625,21.875 C 68.79625,21.82 68.375,21.745001 68.375,21.40625 C 68.375,21.0475 68.736248,20.968749 69.03125,20.96875 C 69.44875,20.96875 69.706253,21.138749 69.84375,21.53125 L 70.75,21.21875 C 70.46375,20.41125 69.790001,20.124999 68.96875,20.125 z M 30.125,20.1875 L 30.125,24.84375 L 30.96875,24.84375 L 30.96875,21.71875 L 31,21.71875 L 32.8125,24.84375 L 33.75,24.84375 L 33.75,20.1875 L 32.90625,20.1875 L 32.90625,22.9375 L 32.875,22.9375 L 31.3125,20.1875 L 30.125,20.1875 z M 35.4375,20.1875 L 35.4375,24.84375 L 38.78125,24.84375 L 38.78125,23.96875 L 36.53125,23.96875 L 36.53125,22.90625 L 38.3125,22.90625 L 38.3125,22.03125 L 36.53125,22.03125 L 36.53125,21.09375 L 38.78125,21.09375 L 38.78125,20.1875 L 35.4375,20.1875 z M 39.875,20.1875 L 39.875,21.125 L 41.0625,21.125 L 41.0625,24.84375 L 42.15625,24.84375 L 42.15625,21.125 L 43.34375,21.125 L 43.34375,20.1875 L 39.875,20.1875 z M 44.3125,20.1875 L 45.5,24.84375 L 46.5625,24.84375 L 47.3125,21.78125 L 48.09375,24.84375 L 49.15625,24.84375 L 50.34375,20.1875 L 49.4375,20.1875 L 48.75,23.125 L 48.71875,23.34375 L 48.6875,23.34375 L 47.90625,20.1875 L 46.90625,20.1875 L 46.15625,23.34375 L 46.09375,23.09375 L 45.4375,20.1875 L 44.3125,20.1875 z M 57,20.1875 L 57,24.84375 L 58.09375,24.84375 L 58.09375,23 L 58.875,23 L 59.59375,24.84375 L 60.8125,24.84375 L 59.9375,22.78125 C 60.4425,22.59625 60.75,22.12125 60.75,21.59375 C 60.750002,21.141249 60.5375,20.69 60.15625,20.4375 C 59.795,20.20625 59.38375,20.1875 58.96875,20.1875 L 57,20.1875 z M 62.3125,20.1875 L 62.3125,24.84375 L 63.375,24.84375 L 63.375,23.78125 L 64.03125,22.84375 L 64.96875,24.84375 L 66.15625,24.84375 L 64.75,21.84375 L 65.875,20.1875 L 64.84375,20.1875 L 63.375,22.375 L 63.375,20.1875 L 62.3125,20.1875 z M 53.46875,21.03125 C 53.811249,21.03125 54.01875,21.1575 54.15625,21.46875 C 54.2925,21.781251 54.3125,22.1925 54.3125,22.53125 C 54.312501,22.83625 54.25875,23.215 54.15625,23.5 C 54.027501,23.844999 53.84625,24.03125 53.46875,24.03125 C 52.697499,24.031249 52.59375,23.11375 52.59375,22.53125 C 52.59375,22.239999 52.64,21.84 52.75,21.5625 C 52.880002,21.22375 53.09375,21.03125 53.46875,21.03125 z M 58.09375,21.03125 L 58.65625,21.03125 C 58.861249,21.03125 59.19,20.9775 59.375,21.09375 C 59.531249,21.188751 59.625,21.41 59.625,21.59375 C 59.624999,21.79625 59.52,22.01625 59.34375,22.125 C 59.145002,22.239999 58.9125,22.21875 58.6875,22.21875 L 58.09375,22.21875 L 58.09375,21.03125 z "
       transform="translate(603.35625,975.965)"
       style="fill:#1967bb;fill-opacity:1;fill-rule:nonzero;stroke:none"
       id="path2516" />
  </g>
</svg>
